<svg width="27" height="19" viewBox="0 0 27 19" fill="none" xmlns="http://www.w3.org/2000/svg">
<path d="M9.37294 0.25C9.42895 0.25 9.48495 0.25 9.5404 0.25C9.5656 0.298794 9.59136 0.347588 9.61657 0.396382C9.8462 0.843202 9.8462 0.84375 9.34102 0.969846C7.60481 1.40296 6.06574 2.20724 4.70142 3.34046C4.63701 3.39419 4.54796 3.43695 4.53452 3.5636C10.2629 0.679276 15.9778 0.680921 21.7308 3.57675C21.6485 3.41283 21.551 3.35526 21.4681 3.28454C20.1716 2.18037 18.6734 1.45614 17.0257 1.00932C16.3895 0.837171 16.3923 0.827851 16.6941 0.25C16.7686 0.25 16.8431 0.25 16.9176 0.25C16.9618 0.263706 17.005 0.283991 17.0503 0.290022C18.7697 0.510965 20.3217 1.16009 21.8036 2.01974C22.4303 2.38322 22.8683 2.85855 23.196 3.49232C24.7759 6.54441 25.6026 9.80482 26.0288 13.1787C26.1145 13.8564 26.1772 14.5373 26.25 15.2166C26.25 15.3081 26.25 15.3991 26.25 15.4907C26.0691 15.6738 25.8949 15.8629 25.7073 16.0389C24.2226 17.4287 22.4544 18.2862 20.4639 18.7297C19.9196 18.8509 19.3651 18.9052 18.8174 18.9995C18.7053 18.9995 18.5939 18.9995 18.4819 18.9995C18.2248 18.6634 17.9666 18.3284 17.7107 17.9912C17.5051 17.7204 17.5118 17.693 17.8294 17.5762C18.7406 17.2407 19.5981 16.8037 20.3995 16.2626C21.1203 15.7758 21.7879 15.2281 22.3592 14.5609C19.588 16.4956 16.4589 17.2407 13.1164 17.2407C9.77395 17.2407 6.64541 16.4934 3.87308 14.5609C4.11503 14.8361 4.35866 15.0981 4.62637 15.3328C5.74987 16.3169 7.01786 17.0696 8.43035 17.5861C8.71318 17.6897 8.7227 17.727 8.539 17.9698C8.27857 18.3147 8.01422 18.6568 7.75099 19C7.63897 19 7.52752 19 7.4155 19C7.34326 18.9841 7.27157 18.9611 7.1982 18.9539C6.13575 18.8536 5.10691 18.6113 4.10999 18.2396C2.59053 17.6727 1.25141 16.8388 0.154795 15.6497C0.050062 15.5362 -0.00986521 15.4205 0.00133613 15.2577C0.171036 12.847 0.541241 10.4688 1.21052 8.14035C1.7325 6.32456 2.40122 4.56634 3.3651 2.92544C3.48271 2.72533 3.62105 2.54989 3.81931 2.41612C5.0089 1.61184 6.28977 0.997807 7.68042 0.603618C8.23824 0.446272 8.80951 0.366228 9.37294 0.25ZM19.0498 10.8004C19.0487 10.3125 18.9596 9.93915 18.7529 9.56085C18.0433 8.26151 16.4175 8.09649 15.4581 9.22643C14.6947 10.1255 14.7524 11.6546 15.5813 12.5033C16.3178 13.2577 17.3701 13.3366 18.1974 12.682C18.805 12.2018 19.0531 11.5526 19.0498 10.8004ZM7.187 10.7961C7.17075 11.3843 7.34438 11.9101 7.71794 12.3734C8.45947 13.295 9.76723 13.3739 10.6124 12.545C11.4715 11.7023 11.5572 10.182 10.7972 9.25055C9.92237 8.17873 8.45275 8.21272 7.63449 9.32785C7.31301 9.7648 7.17188 10.2588 7.187 10.7961Z" fill="#F4F4F4"/>
</svg>
