<svg width="25" height="25" viewBox="0 0 25 25" fill="none" xmlns="http://www.w3.org/2000/svg">
<path d="M7.46 0.25H17.54C21.38 0.25 24.5 3.37 24.5 7.21V17.29C24.5 19.1359 23.7667 20.9062 22.4615 22.2115C21.1562 23.5167 19.3859 24.25 17.54 24.25H7.46C3.62 24.25 0.5 21.13 0.5 17.29V7.21C0.5 5.36409 1.23328 3.59379 2.53854 2.28854C3.84379 0.983284 5.61409 0.25 7.46 0.25ZM7.22 2.65C6.07427 2.65 4.97546 3.10514 4.1653 3.9153C3.35514 4.72546 2.9 5.82427 2.9 6.97V17.53C2.9 19.918 4.832 21.85 7.22 21.85H17.78C18.9257 21.85 20.0245 21.3949 20.8347 20.5847C21.6449 19.7745 22.1 18.6757 22.1 17.53V6.97C22.1 4.582 20.168 2.65 17.78 2.65H7.22ZM18.8 4.45C19.1978 4.45 19.5794 4.60804 19.8607 4.88934C20.142 5.17064 20.3 5.55218 20.3 5.95C20.3 6.34783 20.142 6.72936 19.8607 7.01066C19.5794 7.29197 19.1978 7.45 18.8 7.45C18.4022 7.45 18.0206 7.29197 17.7393 7.01066C17.458 6.72936 17.3 6.34783 17.3 5.95C17.3 5.55218 17.458 5.17064 17.7393 4.88934C18.0206 4.60804 18.4022 4.45 18.8 4.45ZM12.5 6.25C14.0913 6.25 15.6174 6.88214 16.7426 8.00736C17.8679 9.13258 18.5 10.6587 18.5 12.25C18.5 13.8413 17.8679 15.3674 16.7426 16.4926C15.6174 17.6179 14.0913 18.25 12.5 18.25C10.9087 18.25 9.38258 17.6179 8.25736 16.4926C7.13214 15.3674 6.5 13.8413 6.5 12.25C6.5 10.6587 7.13214 9.13258 8.25736 8.00736C9.38258 6.88214 10.9087 6.25 12.5 6.25ZM12.5 8.65C11.5452 8.65 10.6295 9.02928 9.95442 9.70442C9.27928 10.3795 8.9 11.2952 8.9 12.25C8.9 13.2048 9.27928 14.1205 9.95442 14.7956C10.6295 15.4707 11.5452 15.85 12.5 15.85C13.4548 15.85 14.3705 15.4707 15.0456 14.7956C15.7207 14.1205 16.1 13.2048 16.1 12.25C16.1 11.2952 15.7207 10.3795 15.0456 9.70442C14.3705 9.02928 13.4548 8.65 12.5 8.65Z" fill="#F4F4F4"/>
</svg>
