<svg width="24" height="24" viewBox="0 0 24 24" fill="none" xmlns="http://www.w3.org/2000/svg">
<path d="M22.1458 3.1448C21.7858 2.83952 21.2204 2.79584 20.6357 3.03056H20.6348C20.0199 3.27728 3.2295 10.4792 2.54597 10.7734C2.42165 10.8166 1.33589 11.2218 1.44774 12.1242C1.54758 12.9378 2.42022 13.2747 2.52678 13.3136L6.79542 14.7752C7.07862 15.7179 8.12262 19.196 8.3535 19.939C8.4975 20.4022 8.73222 21.0109 9.14358 21.1362C9.50454 21.2754 9.86358 21.1482 10.0959 20.9658L12.7057 18.5451L16.9186 21.8307L17.0189 21.8907C17.305 22.0174 17.5791 22.0808 17.8407 22.0808C18.0428 22.0808 18.2367 22.0429 18.422 21.967C19.0532 21.7078 19.3057 21.1064 19.3321 21.0382L22.4789 4.68128C22.6709 3.80768 22.4041 3.3632 22.1458 3.1448ZM10.5601 15.3598L9.12006 19.1998L7.68006 14.3998L18.7201 6.23984L10.5601 15.3598Z" fill="#F4F4F4"/>
</svg>
