<svg width="23" height="20" viewBox="0 0 23 20" fill="none" xmlns="http://www.w3.org/2000/svg">
<path d="M7.32827 19.25C15.8167 19.25 20.4609 12.0356 20.4609 5.78115C20.4609 5.57833 20.4565 5.371 20.4477 5.16819C21.3511 4.49812 22.1308 3.66814 22.75 2.71726C21.9086 3.10119 21.0153 3.35193 20.1005 3.46092C21.0637 2.8688 21.7849 1.93861 22.1304 0.842775C21.2243 1.39352 20.2334 1.78201 19.2001 1.99162C18.5039 1.23295 17.5834 0.730615 16.581 0.562289C15.5785 0.393964 14.5499 0.569019 13.6541 1.06039C12.7584 1.55176 12.0454 2.33208 11.6255 3.28071C11.2055 4.22933 11.102 5.29343 11.3308 6.30847C9.49609 6.21404 7.70119 5.72523 6.06248 4.87371C4.42378 4.0222 2.97784 2.827 1.81841 1.36559C1.22912 2.4076 1.0488 3.64063 1.31409 4.81409C1.57938 5.98756 2.27037 7.01339 3.24663 7.68312C2.51371 7.65925 1.79685 7.45687 1.15527 7.09269V7.15129C1.15462 8.24479 1.52322 9.30479 2.19842 10.1511C2.87361 10.9974 3.81374 11.5778 4.85898 11.7935C4.18005 11.9841 3.46748 12.0118 2.77642 11.8747C3.07136 12.8151 3.64522 13.6376 4.41791 14.2274C5.1906 14.8173 6.12355 15.145 7.08657 15.1648C5.45165 16.482 3.43204 17.1964 1.35303 17.193C0.984332 17.1924 0.615999 17.1692 0.25 17.1236C2.36205 18.5133 4.81894 19.2513 7.32827 19.25Z" fill="#F4F4F4"/>
</svg>
